<svg xmlns="http://www.w3.org/2000/svg" width="1200" height="520" viewBox="0 0 1200 520" role="img" aria-labelledby="title desc"><title id="title">Legacy application modernization architecture</title><desc id="desc">A preserved HTTP contract becomes a hardened immutable container. The proposed AWS path uses a load balancer, ECS and Aurora with supporting queues, storage and monitoring.</desc><defs><style>.t{font:600 15px Arial;fill:#102334}.s{font:13px Arial;fill:#5a6d78}.h{font:700 12px Arial;letter-spacing:2px;fill:#146c7e}.b{fill:#fff;stroke:#a6b6bc;stroke-width:1.5}.l{stroke:#667d87;stroke-width:2;fill:none}</style><marker id="a" viewBox="0 0 10 10" refX="9" refY="5" markerWidth="7" markerHeight="7" orient="auto"><path d="M0 0 10 5 0 10z" fill="#667d87"/></marker></defs><rect width="1200" height="520" fill="#f8f8f5"/><text x="55" y="52" class="h">PRESERVED CONTRACT → HARDENED RUNTIME → AWS TARGET</text><rect x="55" y="90" width="190" height="90" rx="8" class="b"/><text x="150" y="126" text-anchor="middle" class="t">HTTP /v1 contract</text><text x="150" y="151" text-anchor="middle" class="s">validation · idempotency</text><rect x="315" y="90" width="190" height="90" rx="8" fill="#e6f0f2" stroke="#146c7e" stroke-width="2"/><text x="410" y="126" text-anchor="middle" class="t">Immutable image</text><text x="410" y="151" text-anchor="middle" class="s">non-root · read-only</text><image href="../diagram/aws/alb.svg" x="595" y="97" width="76" height="76"/><image href="../diagram/aws/ecs.svg" x="790" y="97" width="76" height="76"/><image href="../diagram/aws/aurora.svg" x="985" y="97" width="76" height="76"/><path d="M245 135H305M505 135H585M681 135H780M876 135H975" class="l" marker-end="url(#a)"/><text x="633" y="208" text-anchor="middle" class="t">Load balancer</text><text x="828" y="208" text-anchor="middle" class="t">ECS / Fargate</text><text x="1023" y="208" text-anchor="middle" class="t">Aurora</text><text x="55" y="300" class="h">SUPPORTING TARGET SERVICES · PLAN ONLY</text><rect x="55" y="330" width="1090" height="125" rx="8" fill="#eef2f2" stroke="#b8c5c9" stroke-dasharray="7 7"/><image href="../diagram/aws/s3.svg" x="200" y="358" width="64" height="64"/><text x="280" y="397" class="t">S3 objects</text><image href="../diagram/aws/sqs.svg" x="480" y="358" width="64" height="64"/><text x="560" y="397" class="t">SQS + dead-letter queue</text><image href="../diagram/aws/cloudwatch.svg" x="820" y="358" width="64" height="64"/><text x="900" y="397" class="t">CloudWatch signals</text></svg>
